# xmcd
#
# Track frame offsets:
#	150
#	17552
#	37209
#	53217
#	68046
#	86120
#	104066
#	120198
#	138780
#	154550
#	170142
#	188709
#	207773
#	223251
#	239844
#	257912
#	274350
#	291184
#	307088
#	319544
#
# Disc length: 4470 seconds
#
# Revision: 1
# Processed by: cddbd v1.5.2PL0 Copyright (c) Steve Scherf et al.
# Submitted via: audiograbber 1.83.01
#
DISCID=35117414
DTITLE=Various Artist - Massive R and B Winter 2008 CD2
DYEAR=2008
DGENRE=R n B
TTITLE0=Neyo - Miss Independant
TTITLE1=Usher feat Young Jeezy - Love in this Club
TTITLE2=Nelly feat Ashanti Akon - Body on me
TTITLE3=Taio Cruz - Shes Like a Star
TTITLE4=Solange Knowles - I decided
TTITLE5=Mary J bilge - Just Fine
TTITLE6=N Dubz - Ouch
TTITLE7=LL cool J feat The Dream - Baby
TTITLE8=Rick Ross feat Nelly Avert Storm - Here I am
TTITLE9=Ray J feat YUNG BERG - Sexy I can
TTITLE10=Ja Rule feat Christina Milian - Between you and me
TTITLE11=Fabolous feat  Neyo - Make Me Better
TTITLE12=Jay Sean - Maybe
TTITLE13=Danso feat Angel - My louis
TTITLE14=Snoop Dogg  - Those Gurlz
TTITLE15=Christina mIlian feat Fabolous - Dip it low (Remix)
TTITLE16=Black eyed peas - My humps
TTITLE17=Shwayze - Buzzin
TTITLE18=702 - Where my girls at
TTITLE19=Montell Jordan - This is How We Do it
EXTD=
EXTT0=
EXTT1=
EXTT2=
EXTT3=
EXTT4=
EXTT5=
EXTT6=
EXTT7=
EXTT8=
EXTT9=
EXTT10=
EXTT11=
EXTT12=
EXTT13=
EXTT14=
EXTT15=
EXTT16=
EXTT17=
EXTT18=
EXTT19=
PLAYORDER=
